<svg height="512pt" viewBox="0 0 512 512" width="512pt" xmlns="http://www.w3.org/2000/svg"><path d="m355.75 307.8125c15.589844-19.636719 25.484375-34.957031 31.765625-47.789062l-138.195313-124.886719c-20.371093 19.363281-29.976562 44.796875-45.132812 44.796875-19.035156 0-29.324219-40.113282-63.160156-57.9375-33.226563 14.953125-56.359375 48.347656-56.359375 87.144531 0 25.171875 1.578125 46.96875 42.625 98.671875 24.007812 30.242188 31.441406 91.523438 42.242187 137.203125 10.0625-34.421875 17.519532-71.683594 34.652344-71.683594 31.835938 0 30.25 128.667969 74.085938 128.667969 43.835937 0 36.425781-142.484375 77.476562-194.1875zm0 0" fill="#efeeee"/><path d="m315.128906 135.011719c0-58.511719 39.878906-107.703125 93.9375-121.894531-10.242187-2.6875-20.992187-4.125-32.078125-4.125-69.597656 0-126.015625 56.417968-126.015625 126.015624 0 69.597657 56.417969 126.019532 126.015625 126.019532 11.085938 0 21.835938-1.4375 32.078125-4.125-54.058594-14.1875-93.9375-63.378906-93.9375-121.890625zm0 0" fill="#fff"/><path d="m503.007812 135.011719c0-58.511719-39.878906-107.703125-93.941406-121.894531-54.058594 14.191406-93.9375 63.382812-93.9375 121.894531 0 58.507812 39.878906 107.703125 93.9375 121.890625 54.0625-14.1875 93.941406-63.378906 93.941406-121.890625zm0 0" fill="#02ad67"/><path d="m359.507812 190.011719c-2.652343 0-5.195312-1.054688-7.070312-2.929688l-55.035156-55.035156c-3.90625-3.90625-3.90625-10.238281 0-14.144531s10.238281-3.90625 14.144531 0l47.964844 47.964844 82.925781-82.929688c3.90625-3.902344 10.234375-3.90625 14.140625 0s3.90625 10.238281 0 14.144531l-89.996094 90c-1.878906 1.875-4.421875 2.929688-7.074219 2.929688zm0 0"/><path d="m79.589844 293.691406c-3.378906 0-6.675782-1.710937-8.554688-4.808594-13.464844-22.167968-14.535156-35.675781-14.535156-51.035156 0-42.855468 34.867188-77.722656 77.726562-77.722656 5.519532 0 10 4.476562 10 10s-4.480468 10-10 10c-31.832031 0-57.726562 25.894531-57.726562 57.722656 0 11.0625 0 21.507813 11.628906 40.652344 2.867188 4.71875 1.363282 10.871094-3.355468 13.738281-1.625.984375-3.414063 1.453125-5.183594 1.453125zm0 0"/><path d="m96.730469 317.8125c-2.980469 0-5.925781-1.324219-7.894531-3.855469-3.421876-4.316406-2.726563-10.613281 1.582031-14.050781 4.316406-3.4375 10.582031-2.757812 14.027343 1.546875l.1875.242187c3.378907 4.367188 2.574219 10.648438-1.792968 14.027344-1.820313 1.410156-3.972656 2.089844-6.109375 2.089844zm0 0"/><path d="m472.457031 39.542969c-25.5-25.5-59.402343-39.542969-95.46875-39.542969-36.0625 0-69.964843 14.042969-95.464843 39.542969-20.949219 20.949219-34.175782 47.496093-38.25 76.765625-.546876 3.925781-.898438 7.871094-1.09375 11.824218-8.300782 7.941407-14.769532 16.570313-20.476563 24.195313-6.480469 8.65625-13.179687 17.605469-17.515625 17.605469s-11.035156-8.949219-17.515625-17.605469c-14.523437-19.394531-36.464844-48.703125-81.15625-48.703125-58.179687 0-105.515625 47.335938-105.515625 105.515625 0 28.378906 3.214844 52.511719 44.796875 104.890625 17.175781 21.632812 25.761719 63.628906 33.339844 100.683594 4.902343 23.964844 9.53125 46.597656 16.1875 63.835937 3.191406 8.273438 12.910156 33.449219 35.777343 33.449219 31.265626 0 42.984376-42.148438 53.324219-79.339844 4.019531-14.464844 7.816407-28.125 12.246094-37.910156 4.082031-9.015625 7.273437-11.417969 8.515625-11.417969 1.246094 0 4.4375 2.402344 8.515625 11.417969 4.429687 9.785156 8.226563 23.445312 12.25 37.910156 10.335937 37.191406 22.054687 79.339844 53.320313 79.339844 22.863281 0 32.585937-25.175781 35.777343-33.449219 6.65625-17.238281 11.285157-39.871093 16.1875-63.835937 7.578125-37.050782 16.164063-79.046875 33.339844-100.683594 13.589844-17.117188 23.640625-31.929688 30.621094-45.125.496093-.0625.996093-.109375 1.492187-.179688 29.269532-4.074218 55.8125-17.300781 76.765625-38.25 25.5-25.5 39.542969-59.40625 39.542969-95.46875s-14.042969-69.964843-39.542969-95.464843zm-14.144531 176.792969c-35.648438 35.648437-91.511719 43.863281-135.851562 19.972656-4.863282-2.621094-10.929688-.800782-13.550782 4.058594-2.617187 4.863281-.800781 10.929687 4.0625 13.546874 17.683594 9.53125 37.539063 14.9375 57.648438 15.910157-5.863282 9.507812-13.371094 20.011719-22.707032 31.769531-20.148437 25.382812-28.851562 67.949219-37.269531 109.113281-7.792969 38.105469-16.625 81.292969-32.371093 81.292969-16.070313 0-26.039063-35.871094-34.054688-64.695312-4.234375-15.230469-8.230469-29.613282-13.296875-40.800782-2.59375-5.730468-10.488281-23.171875-26.734375-23.171875-16.25 0-24.144531 17.441407-26.738281 23.171875-5.0625 11.1875-9.0625 25.570313-13.292969 40.800782-8.015625 28.824218-17.984375 64.695312-34.054688 64.695312-15.742187 0-24.578124-43.1875-32.371093-81.292969-8.417969-41.164062-17.121094-83.730469-37.269531-109.113281-40.460938-50.960938-40.460938-71.117188-40.460938-92.453125 0-47.152344 38.359375-85.515625 85.515625-85.515625 34.683594 0 50.867187 21.617188 65.144531 40.691406 9.863282 13.171875 19.179688 25.617188 33.527344 25.617188 14.34375 0 23.660156-12.445313 33.523438-25.617188 1.910156-2.550781 3.917968-5.226562 6.03125-7.921875 2.386718 14.890625 7.195312 29.371094 14.339843 42.628907 2.621094 4.863281 8.683594 6.679687 13.546875 4.0625 4.859375-2.621094 6.679688-8.6875 4.058594-13.550782-23.886719-44.335937-15.675781-100.199218 19.976562-135.847656 21.722657-21.722656 50.605469-33.6875 81.324219-33.6875 30.722657 0 59.605469 11.964844 81.324219 33.6875 21.722656 21.71875 33.6875 50.601562 33.6875 81.324219 0 30.71875-11.964844 59.601562-33.6875 81.324219zm0 0"/><path d="m288.519531 233.476562c-2.558593 0-5.117187-.976562-7.070312-2.929687-3.90625-3.90625-3.90625-10.238281 0-14.144531l.078125-.078125c3.90625-3.90625 10.238281-3.90625 14.144531 0 3.90625 3.902343 3.90625 10.234375 0 14.140625l-.082031.082031c-1.953125 1.953125-4.511719 2.929687-7.070313 2.929687zm0 0"/></svg>