<svg height="512pt" viewBox="0 -36 512 512" width="512pt" xmlns="http://www.w3.org/2000/svg"><path d="m7.5 58.515625h.015625c.003906-28.171875 22.824219-51.015625 51-51.015625h429.128906c9.308594 0 16.855469 7.546875 16.855469 16.855469v322.46875c0 9.308593-7.546875 16.851562-16.851562 16.851562h-480.148438zm0 0" fill="#774839"/><path d="m477.4375 184.246094h-400v-106.566406c0-9.105469 7.378906-16.484376 16.484375-16.484376h367.027344c9.105469 0 16.488281 7.378907 16.488281 16.484376zm0 0" fill="#92dd7a"/><path d="m163.925781 61.191406h-70c-9.105469 0-16.488281 7.382813-16.488281 16.488282v106.566406h70v-106.566406c0-9.105469 7.382812-16.488282 16.488281-16.488282zm0 0" fill="#7ec66a"/><path d="m477.4375 216.835938h-400v-71.859376c0-9.105468 7.378906-16.488281 16.484375-16.488281h367.027344c9.105469 0 16.488281 7.382813 16.488281 16.488281zm0 0" fill="#d7f3ff"/><path d="m415.949219 109.53125h-357.433594c-28.175781 0-51.015625-22.839844-51.015625-51.015625v323.945313c0 28.175781 22.839844 51.015624 51.015625 51.015624h357.433594c9.308593 0 16.855469-7.546874 16.855469-16.855468v-290.238282c0-9.308593-7.546876-16.851562-16.855469-16.851562zm0 0" fill="#b2785b"/><path d="m77.5 382.460938v-272.929688h-18.984375c-28.175781 0-51.015625-22.839844-51.015625-51.015625v323.945313c0 28.175781 22.839844 51.015624 51.015625 51.015624h70c-28.175781 0-51.015625-22.839843-51.015625-51.015624zm0 0" fill="#935b45"/><path d="m327.890625 278.769531h110.378906c5.171875 0 9.359375-4.191406 9.359375-9.359375v-105.148437c0-5.167969-4.1875-9.359375-9.359375-9.359375h-110.378906c-34.203125 0-61.933594 27.730468-61.933594 61.933594 0 34.203124 27.730469 61.933593 61.933594 61.933593zm0 0" fill="#935b45"/><path d="m363.675781 216.835938c0 20.082031-16.277343 36.359374-36.359375 36.359374-20.078125 0-36.359375-16.277343-36.359375-36.359374 0-20.082032 16.28125-36.359376 36.359375-36.359376 20.082032 0 36.359375 16.277344 36.359375 36.359376zm0 0" fill="#ffeb99"/><path d="m320.957031 216.835938c0-14.730469 8.765625-27.40625 21.359375-33.117188-4.574218-2.074219-9.648437-3.242188-15-3.242188-20.078125 0-36.359375 16.28125-36.359375 36.359376 0 20.082031 16.277344 36.359374 36.359375 36.359374 5.351563 0 10.425782-1.164062 15-3.238281-12.59375-5.714843-21.359375-18.390625-21.359375-33.121093zm0 0" fill="#ffde55"/><path d="m289.519531 371.925781h-11.355469c-4.140624 0-7.5-3.355469-7.5-7.5 0-4.140625 3.359376-7.5 7.5-7.5h11.355469c4.140625 0 7.5 3.359375 7.5 7.5 0 4.144531-3.359375 7.5-7.5 7.5zm0 0" fill="#eaeaea"/><path d="m162.140625 371.925781h-11.355469c-4.144531 0-7.5-3.355469-7.5-7.5 0-4.140625 3.355469-7.5 7.5-7.5h11.355469c4.140625 0 7.5 3.359375 7.5 7.5 0 4.144531-3.359375 7.5-7.5 7.5zm0 0" fill="#eaeaea"/><path d="m240.648438 356.035156c-3.589844-2.066406-8.175782-.828125-10.242188 2.761719-2.105469 3.667969-6.035156 5.941406-10.253906 5.941406s-8.148438-2.273437-10.257813-5.941406c-2.0625-3.589844-6.648437-4.828125-10.238281-2.765625-3.589844 2.066406-4.828125 6.648438-2.765625 10.242188 4.773437 8.304687 13.6875 13.464843 23.261719 13.464843 9.570312 0 18.484375-5.160156 23.257812-13.464843 2.066406-3.589844.828125-8.175782-2.761718-10.238282zm0 0"/><path d="m283.839844 324.105469c-4.140625 0-7.5 3.359375-7.5 7.5v11.355469c0 4.144531 3.359375 7.5 7.5 7.5 4.144531 0 7.5-3.355469 7.5-7.5v-11.355469c0-4.140625-3.355469-7.5-7.5-7.5zm0 0"/><path d="m156.460938 324.105469c-4.140626 0-7.5 3.359375-7.5 7.5v11.355469c0 4.144531 3.359374 7.5 7.5 7.5 4.144531 0 7.5-3.355469 7.5-7.5v-11.355469c0-4.140625-3.355469-7.5-7.5-7.5zm0 0"/><path d="m512 24.355469c0-13.429688-10.925781-24.355469-24.355469-24.355469h-429.128906c-32.027344 0-58.109375 25.882812-58.4804688 57.832031-.0195312.226563-.0351562.453125-.0351562.683594v323.945313c0 32.265624 26.25 58.515624 58.515625 58.515624h357.433594c13.429687 0 24.355469-10.925781 24.355469-24.355468v-45.445313h47.34375c13.425781 0 24.351562-10.925781 24.351562-24.355469zm-496.984375 34.160156c.003906-23.996094 19.515625-43.515625 43.5-43.515625h429.128906c5.160157 0 9.355469 4.195312 9.355469 9.355469v184.980469h-12.0625v-131.65625c0-13.226563-10.757812-23.984376-23.984375-23.984376h-272.019531c-4.144532 0-7.5 3.355469-7.5 7.5 0 4.140626 3.355468 7.5 7.5 7.5h272.015625c4.957031 0 8.988281 4.03125 8.988281 8.984376v45.0625c-2.777344-1.125-5.808594-1.753907-8.988281-1.753907h-21.257813c-2.460937-10.839843-12.167968-18.957031-23.742187-18.957031h-331.011719v-24.351562c0-4.953126 4.03125-8.984376 8.984375-8.984376h67.011719c4.140625 0 7.5-3.359374 7.5-7.5 0-4.144531-3.359375-7.5-7.5-7.5h-67.007813c-13.226562 0-23.988281 10.757813-23.988281 23.984376v24.351562h-11.421875c-23.917969 0-43.386719-19.398438-43.507813-43.289062 0-.078126.007813-.148438.007813-.226563zm425.289063 89.019531v-11.546875h20.644531c4.957031 0 8.988281 4.03125 8.988281 8.988281v64.359376h-14.808594v-45.074219c0-8.605469-6.488281-15.714844-14.824218-16.726563zm-.175782 16.726563v105.148437c0 1.023438-.832031 1.859375-1.859375 1.859375h-110.378906c-30.011719 0-54.433594-24.421875-54.433594-54.433593 0-30.015626 24.421875-54.4375 54.433594-54.4375h110.378906c1.027344.003906 1.859375.835937 1.859375 1.863281zm47.519532 191.914062h-47.34375v-24.570312c0-4.140625-3.359376-7.5-7.5-7.5-4.144532 0-7.5 3.359375-7.5 7.5v85.015625c0 5.160156-4.199219 9.355468-9.355469 9.355468h-357.433594c-23.996094 0-43.515625-19.523437-43.515625-43.515624v-284.863282c10.71875 11.921875 26.257812 19.433594 43.515625 19.433594h357.433594c5.15625 0 9.355469 4.195312 9.355469 9.351562v21.019532h-97.414063c-38.285156 0-69.433594 31.148437-69.433594 69.433594 0 38.289062 31.148438 69.433593 69.433594 69.433593h97.414063v17.339844c0 4.140625 3.355468 7.5 7.5 7.5 4.140624 0 7.5-3.359375 7.5-7.5v-17.472656c8.339843-1.007813 14.824218-8.117188 14.824218-16.726563v-45.074218h41.871094v122.488281c0 5.15625-4.195312 9.351562-9.351562 9.351562zm0 0"/><path d="m327.316406 172.976562c-24.183594 0-43.859375 19.675782-43.859375 43.859376 0 24.183593 19.675781 43.855468 43.859375 43.855468s43.859375-19.671875 43.859375-43.855468c0-24.183594-19.675781-43.859376-43.859375-43.859376zm0 72.71875c-15.914062 0-28.859375-12.949218-28.859375-28.859374 0-15.910157 12.945313-28.859376 28.859375-28.859376 15.914063 0 28.859375 12.949219 28.859375 28.859376 0 15.910156-12.945312 28.859374-28.859375 28.859374zm0 0"/></svg>