<svg height="511pt" viewBox="1 0 511.999 511" width="511pt" xmlns="http://www.w3.org/2000/svg"><path d="m502 279.136719v-81.777344c0-6.289063-2.113281-12.085937-5.667969-16.722656-10.371093 3.945312-17.742187 13.972656-17.742187 25.722656v72.785156c-1.175782-4.640625-3.578125-9.03125-7.207032-12.664062-6.636718-6.636719-15.824218-9.171875-24.410156-7.605469v11.269531c-.894531-3.527343-2.5-6.914062-4.8125-9.929687-3.53125 1.339844-6.84375 3.421875-9.6875 6.265625l-96.492187 96.492187c-15.621094 15.617188-24.222657 36.386719-24.222657 58.476563v80.953125h88.269532l84.890625-156.09375c11.175781-20.550782 17.082031-43.777344 17.082031-67.171875zm0 0" fill="#ffd29f"/><path d="m351.980469 133.535156c26.007812-32.757812 27.007812-46.570312 27.007812-62.519531 0-33.421875-27.09375-60.519531-60.515625-60.519531-40.675781 0-47.015625 42.015625-62.523437 42.015625-11.019531 0-17.414063-21.230469-34.804688-33.503907-17.710937 10.554688-29.578125 29.894532-29.578125 52.011719 0 15.945313 1 29.757813 27.007813 62.519531 11.472656 14.449219 16.96875 40.085938 21.914062 64.230469 3.996094-12.859375 8.449219-22.71875 15.460938-22.71875 20.175781 0 19.167969 81.527344 46.945312 81.527344 27.773438 0 23.078125-90.28125 49.085938-123.042969zm0 0" fill="#efeeee"/><path d="m207.636719 353.972656-96.492188-96.492187c-10.746093-10.742188-28.167969-10.742188-38.910156 0-3.628906 3.632812-6.03125 8.023437-7.207031 12.664062v-72.785156c0-8.546875-3.898438-16.1875-10.019532-21.234375-6.117187 5.046875-10.015624 12.6875-10.015624 21.234375v81.777344c0 23.394531 5.90625 46.621093 17.082031 67.171875l84.890625 156.09375h84.894531v-89.953125c0-22.085938-8.601563-42.855469-24.222656-58.476563zm0 0" fill="#ffd29f"/><path d="m474.488281 159.847656c-20.683593 0-37.511719 16.828125-37.511719 37.515625v45.957031c-5.117187-2.542968-10.785156-3.894531-16.664062-3.894531-10.023438 0-19.441406 3.902344-26.527344 10.988281l-96.492187 96.492188c-17.507813 17.507812-27.148438 40.785156-27.148438 65.546875v89.949219c0 5.523437 4.476563 10 9.996094 10h34.152344c5.519531 0 9.996093-4.476563 9.996093-10 0-5.523438-4.476562-9.996094-9.996093-9.996094h-24.152344v-79.953125c0-19.421875 7.558594-37.675781 21.292969-51.40625l96.492187-96.496094c3.308594-3.308593 7.707031-5.128906 12.386719-5.128906s9.078125 1.820313 12.386719 5.132813c2.039062 2.039062 3.683593 4.402343 4.277343 7.039062.535157 2.386719.863282 6.40625.257813 9.777344-.757813 2.914062-2.257813 5.671875-4.539063 7.953125l-96.492187 96.492187c-7.113281 7.113282-11.03125 16.574219-11.03125 26.632813 0 5.523437 4.476563 10 9.996094 10 5.523437 0 10-4.476563 10-10 0-4.71875 1.839843-9.15625 5.175781-12.492188l96.492188-96.496093c9.316406-9.316407 12.6875-22.351563 10.136718-34.371094v-71.730469c0-9.65625 7.855469-17.515625 17.515625-17.515625 9.660157 0 17.515625 7.859375 17.515625 17.515625v81.777344c0 21.726562-5.484375 43.304687-15.867187 62.394531l-82.050781 150.871094h-22.011719c-5.523438 0-10 4.476562-10 10 0 5.519531 4.476562 9.996094 10 9.996094h27.953125c3.664062 0 7.035156-2.003907 8.785156-5.222657l84.886719-156.09375c11.972656-22.011719 18.300781-46.890625 18.300781-71.945312v-81.777344c0-20.683594-16.828125-37.511719-37.511719-37.511719zm0 0"/><path d="m342.695312 512.398438h-.144531c-5.519531 0-9.996093-4.476563-9.996093-9.996094 0-5.523438 4.476562-10 9.996093-10h.144531c5.523438 0 10 4.476562 10 10 0 5.519531-4.476562 9.996094-10 9.996094zm0 0"/><path d="m214.707031 346.90625-96.492187-96.492188c-7.085938-7.085937-16.507813-10.988281-26.527344-10.988281-5.878906 0-11.546875 1.351563-16.664062 3.894531v-45.960937c0-20.683594-16.828126-37.511719-37.511719-37.511719-20.683594 0-37.511719 16.828125-37.511719 37.511719v81.777344c0 25.054687 6.328125 49.933593 18.296875 71.945312l84.890625 156.09375c1.75 3.21875 5.121094 5.222657 8.78125 5.222657h27.957031c5.523438 0 10-4.476563 10-9.996094 0-5.523438-4.476562-10-10-10h-22.011719l-82.050781-150.871094c-10.378906-19.089844-15.867187-40.667969-15.867187-62.394531v-81.777344c0-9.65625 7.859375-17.515625 17.515625-17.515625 9.660156 0 17.515625 7.859375 17.515625 17.515625v71.730469c-2.550782 12.019531.820312 25.054687 10.136718 34.371094l96.496094 96.492187c3.335938 3.339844 5.171875 7.777344 5.171875 12.496094 0 5.523437 4.476563 10 10 10 5.519531 0 9.996094-4.476563 9.996094-10 0-10.0625-3.917969-19.519531-11.03125-26.636719l-96.496094-96.488281c-6.828125-6.832031-6.828125-17.945313 0-24.773438 3.308594-3.308593 7.707031-5.128906 12.386719-5.128906s9.078125 1.820313 12.386719 5.128906l96.492187 96.496094c13.730469 13.730469 21.292969 31.984375 21.292969 51.402344v79.953125h-24.152344c-5.519531 0-9.996093 4.476562-9.996093 10 0 5.519531 4.476562 9.996094 9.996093 9.996094h34.152344c5.519531 0 9.996094-4.476563 9.996094-9.996094v-89.953125c0-24.757813-9.640625-48.035157-27.148438-65.542969zm0 0"/><path d="m169.445312 512.398438h-.140624c-5.523438 0-10-4.476563-10-9.996094 0-5.523438 4.476562-10 10-10h.140624c5.523438 0 10 4.476562 10 10 0 5.519531-4.476562 9.996094-10 9.996094zm0 0"/><path d="m302.890625 266.574219c-22.59375 0-30.414063-28.132813-37.3125-52.953125-2.425781-8.71875-6.292969-22.628906-9.628906-27.488282-3.335938 4.859376-7.203125 18.769532-9.628907 27.488282-6.898437 24.820312-14.71875 52.953125-37.3125 52.953125-11.277343 0-20.054687-7.917969-26.085937-23.535157-4.328125-11.207031-7.289063-25.695312-10.425781-41.03125-4.71875-23.078124-10.066406-49.230468-20.40625-62.253906-27.085938-34.117187-29.179688-50.007812-29.179688-68.738281 0-38.882813 31.636719-70.515625 70.519532-70.515625 30.152343 0 44.714843 19.453125 54.351562 32.328125 2.515625 3.351563 6.21875 8.304687 8.167969 9.53125 1.949219-1.226563 5.652343-6.179687 8.167969-9.53125 9.636718-12.875 24.199218-32.328125 54.351562-32.328125 38.882812 0 70.515625 31.632812 70.515625 70.515625 0 18.730469-2.089844 34.621094-29.175781 68.738281-10.339844 13.023438-15.6875 39.175782-20.40625 62.253906-3.136719 15.335938-6.097656 29.824219-10.425782 41.03125-6.027343 15.617188-14.804687 23.535157-26.085937 23.535157zm-46.941406-101.523438c16.878906 0 22.714843 20.992188 28.894531 43.21875 3.980469 14.328125 10.648438 38.308594 18.046875 38.308594 1.589844 0 4.375-2.820313 7.433594-10.742187 3.726562-9.648438 6.523437-23.339844 9.488281-37.835938 5.421875-26.507812 11.027344-53.914062 24.339844-70.679688 24.839844-31.292968 24.839844-42.882812 24.839844-56.304687 0-27.855469-22.664063-50.519531-50.519532-50.519531-20.144531 0-29.398437 12.359375-38.347656 24.316406-6.515625 8.699219-13.25 17.695312-24.175781 17.695312-10.921875 0-17.65625-8.996093-24.171875-17.695312-8.949219-11.957031-18.203125-24.316406-38.347656-24.316406-27.855469 0-50.519532 22.664062-50.519532 50.519531 0 13.421875 0 25.015625 24.839844 56.304687 13.3125 16.765626 18.917969 44.171876 24.339844 70.679688 2.964844 14.496094 5.761718 28.1875 9.488281 37.835938 3.058594 7.921874 5.84375 10.742187 7.433594 10.742187 7.394531 0 14.0625-23.980469 18.046875-38.308594 6.175781-22.226562 12.011718-43.21875 28.890625-43.21875zm0 0"/><path d="m462.410156 68.972656h-4.5v-4.496094c0-5.523437-4.476562-10-9.996094-10-5.523437 0-10 4.476563-10 10v4.496094h-4.5c-5.519531 0-9.996093 4.476563-9.996093 10 0 5.519532 4.476562 9.996094 9.996093 9.996094h4.5v4.5c0 5.523438 4.476563 10 10 10 5.519532 0 9.996094-4.476562 9.996094-10v-4.5h4.5c5.519532 0 9.996094-4.476562 9.996094-9.996094 0-5.523437-4.476562-10-9.996094-10zm0 0"/><path d="m127.976562 163.371094h-4.5v-4.5c0-5.523438-4.476562-10-10-10-5.519531 0-9.996093 4.476562-9.996093 10v4.5h-4.5c-5.519531 0-9.996094 4.476562-9.996094 9.996094 0 5.523437 4.476563 10 9.996094 10h4.5v4.496093c0 5.523438 4.476562 10 9.996093 10 5.523438 0 10-4.476562 10-10v-4.496093h4.5c5.519532 0 9.996094-4.476563 9.996094-10 0-5.519532-4.476562-9.996094-9.996094-9.996094zm0 0"/></svg>