<?xml version="1.0" encoding="utf-8"?>
<!-- Generator: Adobe Illustrator 22.0.1, SVG Export Plug-In . SVG Version: 6.00 Build 0)  -->
<svg version="1.1" id="Лого_1_copy_1_" xmlns="http://www.w3.org/2000/svg" xmlns:xlink="http://www.w3.org/1999/xlink" x="0px"
	 y="0px" viewBox="0 0 213 44" style="enable-background:new 0 0 213 44;" xml:space="preserve">
<style type="text/css">
	.st0{fill-rule:evenodd;clip-rule:evenodd;fill:#15bd34;}
	.st1{fill-rule:evenodd;clip-rule:evenodd;fill:#FFFFFF;}
	.st2{fill:#15bd34;}
	.st3{fill:#AEBDC7;}
</style>
<g id="Group_6_copy_1_">
	<g id="Ellipse_1">
		<g>
			<circle class="st0" cx="22.3" cy="22.3" r="21.8"/>
		</g>
	</g>
	<g id="Shape_2_copy_2">
		<g>
			<path class="st1" d="M31,15.9c-0.1-2-0.8-3.6-2.5-4.4c-1.3-0.7-2.7-0.6-4,0.2c-1.4,0.8-2.7,0.8-4.1,0c-0.8-0.5-1.7-0.7-2.7-0.5
				c-2.3,0.4-3.6,2.2-3.7,5c-0.1,1.9,0.3,3.8,1.3,5.4c0.6,1,0.7,1.9,0.7,3.1c0,0.3,0,0.6,0,0.9c0.1,2,0.2,4.1,0.6,6.1
				c0.2,1.4,0.7,2.8,1.7,3.9c0.4,0.4,0.8,0.7,1.3,0.5c0.6-0.2,0.7-0.8,0.8-1.4c0.2-1.6,0.4-3.3,0.7-4.9c0.2-1.3,0.5-2.6,1.4-3.5
				c0.2,0.2,0.5,0.4,0.6,0.7c0.2,0.4,0.4,0.9,0.5,1.4c0.4,2.1,0.7,4.1,1,6.2c0.1,0.7,0.2,1.3,0.8,1.5c0.6,0.2,1.1-0.1,1.4-0.6
				c0.5-0.8,1-1.6,1.2-2.5c0.9-2.7,1-5.6,0.9-8.5c0-1.1,0.2-2.1,0.8-3C30.8,19.7,31.1,17.8,31,15.9z"/>
		</g>
	</g>
</g>
<g id="Стоматология_x0D_Серебряный_доктор">
	<g>
		<path class="st2" d="M61.7,13.4l2.5,0.8c-0.4,1.4-1,2.5-1.9,3.1s-2,1-3.4,1c-1.7,0-3.1-0.6-4.2-1.8S53,13.9,53,11.9
			c0-2.1,0.6-3.8,1.7-5s2.6-1.8,4.4-1.8c1.6,0,2.9,0.5,3.8,1.4c0.6,0.6,1,1.3,1.3,2.4l-2.6,0.6c-0.2-0.7-0.5-1.2-1-1.6
			s-1.1-0.6-1.8-0.6c-1,0-1.7,0.3-2.3,1s-0.9,1.8-0.9,3.3c0,1.6,0.3,2.8,0.9,3.5s1.3,1,2.3,1c0.7,0,1.3-0.2,1.8-0.7
			S61.4,14.4,61.7,13.4z"/>
		<path class="st2" d="M69.3,18.2V7.5h-3.8V5.3h10.2v2.2h-3.8v10.7H69.3z"/>
		<path class="st2" d="M76.9,11.8c0-1.3,0.2-2.4,0.6-3.3c0.3-0.7,0.7-1.2,1.2-1.8s1.1-0.9,1.7-1.2c0.8-0.3,1.7-0.5,2.8-0.5
			c1.9,0,3.4,0.6,4.6,1.8s1.7,2.8,1.7,4.9c0,2.1-0.6,3.7-1.7,4.9s-2.6,1.8-4.5,1.8c-1.9,0-3.4-0.6-4.6-1.8S76.9,13.9,76.9,11.8z
			 M79.6,11.7c0,1.5,0.3,2.6,1,3.3s1.5,1.1,2.6,1.1s1.9-0.4,2.6-1.1s1-1.9,1-3.4c0-1.5-0.3-2.6-1-3.3s-1.5-1.1-2.6-1.1
			s-1.9,0.4-2.6,1.1S79.6,10.2,79.6,11.7z"/>
		<path class="st2" d="M91.8,18.2V5.3h3.9l2.3,8.8l2.3-8.8h3.9v12.9h-2.4V8l-2.6,10.1h-2.5L94.2,8v10.1H91.8z"/>
		<path class="st2" d="M118.9,18.2h-2.8l-1.1-2.9h-5.2l-1.1,2.9H106l5-12.9h2.8L118.9,18.2z M114.1,13.1l-1.8-4.8l-1.7,4.8H114.1z"
			/>
		<path class="st2" d="M122.8,18.2V7.5h-3.8V5.3h10.2v2.2h-3.8v10.7H122.8z"/>
		<path class="st2" d="M130.3,11.8c0-1.3,0.2-2.4,0.6-3.3c0.3-0.7,0.7-1.2,1.2-1.8s1.1-0.9,1.7-1.2c0.8-0.3,1.7-0.5,2.8-0.5
			c1.9,0,3.4,0.6,4.6,1.8s1.7,2.8,1.7,4.9c0,2.1-0.6,3.7-1.7,4.9s-2.6,1.8-4.5,1.8c-1.9,0-3.4-0.6-4.6-1.8S130.3,13.9,130.3,11.8z
			 M133,11.7c0,1.5,0.3,2.6,1,3.3s1.5,1.1,2.6,1.1s1.9-0.4,2.6-1.1s1-1.9,1-3.4c0-1.5-0.3-2.6-1-3.3s-1.5-1.1-2.6-1.1
			s-1.9,0.4-2.6,1.1S133,10.2,133,11.7z"/>
		<path class="st2" d="M145.8,5.3h9v12.9h-2.6V7.5h-3.9V13c0,1.6-0.1,2.7-0.2,3.3s-0.4,1.1-0.8,1.5s-1,0.5-1.9,0.5
			c-0.3,0-0.9,0-1.7-0.1v-2l0.6,0c0.5,0,0.9-0.1,1.1-0.2s0.3-0.5,0.3-1.1l0-2.2V5.3z"/>
		<path class="st2" d="M157.4,11.8c0-1.3,0.2-2.4,0.6-3.3c0.3-0.7,0.7-1.2,1.2-1.8s1.1-0.9,1.7-1.2c0.8-0.3,1.7-0.5,2.8-0.5
			c1.9,0,3.4,0.6,4.6,1.8s1.7,2.8,1.7,4.9c0,2.1-0.6,3.7-1.7,4.9s-2.6,1.8-4.5,1.8c-1.9,0-3.4-0.6-4.6-1.8S157.4,13.9,157.4,11.8z
			 M160.1,11.7c0,1.5,0.3,2.6,1,3.3s1.5,1.1,2.6,1.1s1.9-0.4,2.6-1.1s1-1.9,1-3.4c0-1.5-0.3-2.6-1-3.3s-1.5-1.1-2.6-1.1
			s-1.9,0.4-2.6,1.1S160.1,10.2,160.1,11.7z"/>
		<path class="st2" d="M172.5,5.3h8.7v2.2h-6.1v10.7h-2.6V5.3z"/>
		<path class="st2" d="M183.1,5.3h2.4v8.6l5.2-8.6h2.6v12.9h-2.4V9.8l-5.2,8.4h-2.6V5.3z"/>
		<path class="st2" d="M204.1,18.2v-5.4h-0.5c-0.8,0-1.4,0.1-1.7,0.4s-0.9,1-1.7,2.2l-1.9,2.8h-3.1l1.6-2.5c0.6-1,1.1-1.7,1.5-2.1
			s0.8-0.8,1.4-1.1c-1.2-0.2-2.1-0.6-2.6-1.3s-0.8-1.4-0.8-2.3c0-0.8,0.2-1.5,0.6-2.1s0.9-1,1.6-1.2s1.6-0.3,2.9-0.3h5.5v12.9H204.1
			z M204.1,7.5h-2c-1,0-1.7,0-2,0.1s-0.6,0.2-0.8,0.5s-0.4,0.6-0.4,1.1c0,0.5,0.1,0.8,0.3,1.1s0.5,0.4,0.9,0.5s1.1,0.1,2.1,0.1h1.9
			V7.5z"/>
	</g>
	<g>
		<path class="st3" d="M55.6,38.6c-0.8-0.5-1.5-1.1-2-1.9c-0.5-0.8-0.7-1.7-0.7-2.8s0.2-1.9,0.7-2.8c0.5-0.8,1.1-1.5,2-1.9
			c0.8-0.5,1.8-0.7,2.9-0.7c0.8,0,1.6,0.1,2.3,0.4c0.7,0.3,1.3,0.7,1.7,1.2l-1,0.9c-0.8-0.8-1.8-1.2-3-1.2c-0.8,0-1.5,0.2-2.1,0.5
			c-0.6,0.3-1.1,0.8-1.5,1.4s-0.5,1.3-0.5,2.1s0.2,1.4,0.5,2.1s0.8,1.1,1.5,1.4c0.6,0.4,1.3,0.5,2.1,0.5c1.2,0,2.2-0.4,3-1.3l1,0.9
			c-0.5,0.5-1.1,1-1.7,1.2s-1.4,0.4-2.3,0.4C57.4,39.3,56.4,39.1,55.6,38.6z"/>
		<path class="st3" d="M71.1,35.7h-6.4c0.1,0.7,0.4,1.3,0.9,1.7s1.2,0.6,2,0.6c1,0,1.7-0.3,2.3-1l0.8,0.9c-0.4,0.4-0.8,0.7-1.3,1
			c-0.5,0.2-1.1,0.3-1.8,0.3c-0.8,0-1.6-0.2-2.2-0.5c-0.7-0.3-1.2-0.8-1.5-1.4s-0.5-1.3-0.5-2.1c0-0.8,0.2-1.5,0.5-2.1
			c0.3-0.6,0.8-1.1,1.4-1.4c0.6-0.3,1.3-0.5,2-0.5s1.4,0.2,2,0.5c0.6,0.3,1.1,0.8,1.4,1.4c0.3,0.6,0.5,1.3,0.5,2.1
			C71.1,35.4,71.1,35.5,71.1,35.7z M65.5,33c-0.5,0.4-0.7,1-0.8,1.6h5.1c-0.1-0.7-0.4-1.2-0.8-1.6c-0.5-0.4-1-0.6-1.7-0.6
			S65.9,32.6,65.5,33z"/>
		<path class="st3" d="M79.6,31.7c0.6,0.3,1.1,0.8,1.4,1.4c0.3,0.6,0.5,1.3,0.5,2.1c0,0.8-0.2,1.5-0.5,2.1c-0.3,0.6-0.8,1.1-1.4,1.4
			c-0.6,0.3-1.3,0.5-2.1,0.5c-0.6,0-1.1-0.1-1.6-0.3c-0.5-0.2-0.9-0.5-1.2-1v4.1h-1.4V31.2h1.4v1.3c0.3-0.4,0.7-0.8,1.2-1
			c0.5-0.2,1-0.3,1.6-0.3C78.3,31.2,79,31.3,79.6,31.7z M78.8,37.7c0.4-0.2,0.7-0.6,1-1c0.2-0.4,0.4-0.9,0.4-1.5s-0.1-1-0.4-1.5
			s-0.6-0.8-1-1c-0.4-0.2-0.9-0.3-1.4-0.3c-0.5,0-1,0.1-1.4,0.4c-0.4,0.2-0.7,0.6-1,1s-0.4,0.9-0.4,1.5s0.1,1,0.3,1.5
			c0.2,0.4,0.5,0.8,1,1c0.4,0.2,0.9,0.4,1.4,0.4C78,38,78.4,37.9,78.8,37.7z"/>
		<path class="st3" d="M90.8,35.7h-6.4c0.1,0.7,0.4,1.3,0.9,1.7s1.2,0.6,2,0.6c0.9,0,1.7-0.3,2.3-1l0.8,0.9c-0.4,0.4-0.8,0.7-1.3,1
			c-0.5,0.2-1.1,0.3-1.8,0.3c-0.8,0-1.6-0.2-2.2-0.5c-0.7-0.3-1.2-0.8-1.5-1.4s-0.5-1.3-0.5-2.1c0-0.8,0.2-1.5,0.5-2.1
			c0.3-0.6,0.8-1.1,1.4-1.4c0.6-0.3,1.3-0.5,2-0.5s1.4,0.2,2,0.5c0.6,0.3,1.1,0.8,1.4,1.4c0.3,0.6,0.5,1.3,0.5,2.1
			C90.9,35.4,90.9,35.5,90.8,35.7z M85.2,33c-0.5,0.4-0.7,1-0.8,1.6h5.1c-0.1-0.7-0.4-1.2-0.8-1.6c-0.5-0.4-1-0.6-1.7-0.6
			S85.7,32.6,85.2,33z"/>
		<path class="st3" d="M99.1,32c0.6,0.3,1,0.8,1.4,1.4c0.3,0.6,0.5,1.3,0.5,2c0,0.8-0.2,1.5-0.5,2c-0.3,0.6-0.8,1.1-1.5,1.4
			s-1.3,0.5-2.1,0.5c-1.4,0-2.4-0.5-3.1-1.4C93,37,92.6,35.7,92.6,34c0-1.6,0.3-2.9,1-3.8c0.7-0.9,1.7-1.5,3.1-1.8l3.6-0.8l0.2,1.3
			l-3.3,0.7c-1,0.2-1.8,0.6-2.3,1.2c-0.5,0.6-0.8,1.3-0.9,2.4c0.3-0.5,0.8-0.9,1.3-1.2s1.1-0.4,1.8-0.4C97.9,31.5,98.6,31.7,99.1,32
			z M98.3,37.8c0.4-0.2,0.7-0.5,0.9-1c0.2-0.4,0.3-0.9,0.3-1.4c0-0.8-0.2-1.4-0.7-1.9c-0.5-0.5-1.1-0.7-1.9-0.7S95.5,33,95,33.5
			c-0.5,0.5-0.7,1.1-0.7,1.9c0,0.5,0.1,1,0.3,1.4c0.2,0.4,0.5,0.7,0.9,1c0.4,0.2,0.9,0.3,1.4,0.3C97.4,38.1,97.9,38,98.3,37.8z"/>
		<path class="st3" d="M109.3,31.7c0.6,0.3,1.1,0.8,1.4,1.4c0.3,0.6,0.5,1.3,0.5,2.1c0,0.8-0.2,1.5-0.5,2.1
			c-0.3,0.6-0.8,1.1-1.4,1.4c-0.6,0.3-1.3,0.5-2.1,0.5c-0.6,0-1.1-0.1-1.6-0.3c-0.5-0.2-0.9-0.5-1.2-1v4.1H103V31.2h1.4v1.3
			c0.3-0.4,0.7-0.8,1.2-1c0.5-0.2,1-0.3,1.6-0.3C108,31.2,108.7,31.3,109.3,31.7z M108.5,37.7c0.4-0.2,0.7-0.6,1-1
			c0.2-0.4,0.4-0.9,0.4-1.5s-0.1-1-0.4-1.5c-0.2-0.4-0.6-0.8-1-1c-0.4-0.2-0.9-0.3-1.4-0.3c-0.5,0-1,0.1-1.4,0.4
			c-0.4,0.2-0.7,0.6-1,1s-0.4,0.9-0.4,1.5s0.1,1,0.3,1.5c0.2,0.4,0.5,0.8,1,1s0.9,0.4,1.4,0.4C107.6,38,108.1,37.9,108.5,37.7z"/>
		<path class="st3" d="M119.5,31.2v8h-1.3v-2.5h-2.3h-0.2l-1.7,2.5h-1.5l1.9-2.7c-0.6-0.2-1.1-0.5-1.4-0.9s-0.5-0.9-0.5-1.6
			c0-0.9,0.3-1.6,0.9-2.1s1.5-0.7,2.6-0.7H119.5z M114.5,35.2c0.3,0.3,0.8,0.4,1.5,0.4h2.2v-3.1H116c-1.4,0-2.1,0.5-2.1,1.6
			C114,34.6,114.1,35,114.5,35.2z"/>
		<path class="st3" d="M122.3,31.2h1.4v3.4h4.5v-3.4h1.4v8h-1.4v-3.3h-4.5v3.3h-1.4V31.2z"/>
		<path class="st3" d="M138.4,34.6c0.5,0.4,0.8,1.1,0.8,1.9c0,0.9-0.3,1.5-0.9,2c-0.6,0.5-1.4,0.7-2.5,0.7l-3.3,0v-8h1.4v2.7l2.1,0
			C137.1,33.9,137.8,34.2,138.4,34.6z M137.2,37.7c0.3-0.3,0.5-0.7,0.5-1.2c0-0.5-0.2-0.9-0.5-1.1c-0.3-0.2-0.8-0.4-1.5-0.4l-1.8,0
			v3.1l1.8,0C136.4,38.1,136.9,38,137.2,37.7z M140.3,31.2h1.4v8h-1.4V31.2z"/>
		<path class="st3" d="M144.6,31.2h1.4V37l4.9-5.8h1.3v8h-1.4v-5.8l-4.9,5.8h-1.3V31.2z M146.6,29.7c-0.4-0.4-0.6-0.9-0.6-1.5h1
			c0,0.4,0.1,0.7,0.4,0.9c0.2,0.2,0.6,0.3,1,0.3s0.7-0.1,1-0.3c0.3-0.2,0.4-0.5,0.4-0.9h1c0,0.7-0.2,1.2-0.6,1.5
			c-0.4,0.4-1,0.5-1.7,0.5C147.6,30.2,147,30,146.6,29.7z"/>
		<path class="st3" d="M167.1,37.9V41h-1.3v-1.8h-6.6V41h-1.4v-3.1h0.4c0.5,0,0.9-0.4,1-1.1c0.2-0.7,0.3-1.7,0.4-2.9l0.1-2.7h6.2
			v6.7H167.1z M160.7,36.5c-0.1,0.7-0.4,1.1-0.7,1.4h4.5v-5.4H161l-0.1,1.5C160.9,35,160.8,35.8,160.7,36.5z"/>
		<path class="st3" d="M170.3,38.7c-0.6-0.4-1.1-0.8-1.5-1.4c-0.4-0.6-0.5-1.3-0.5-2.1c0-0.8,0.2-1.5,0.5-2.1
			c0.4-0.6,0.8-1.1,1.5-1.4c0.6-0.3,1.3-0.5,2.1-0.5s1.5,0.2,2.1,0.5c0.6,0.3,1.1,0.8,1.5,1.4c0.4,0.6,0.5,1.3,0.5,2.1
			c0,0.8-0.2,1.5-0.5,2.1c-0.4,0.6-0.8,1.1-1.5,1.4c-0.6,0.3-1.3,0.5-2.1,0.5S170.9,39.1,170.3,38.7z M173.8,37.7
			c0.4-0.2,0.7-0.6,1-1c0.2-0.4,0.3-0.9,0.3-1.5s-0.1-1-0.3-1.5c-0.2-0.4-0.5-0.8-1-1c-0.4-0.2-0.9-0.3-1.4-0.3s-1,0.1-1.4,0.3
			c-0.4,0.2-0.7,0.6-1,1c-0.2,0.4-0.4,0.9-0.4,1.5s0.1,1,0.4,1.5c0.2,0.4,0.6,0.8,1,1c0.4,0.2,0.9,0.4,1.4,0.4
			S173.4,37.9,173.8,37.7z"/>
		<path class="st3" d="M181.7,35.8H180v3.4h-1.4v-8h1.4v3.4h1.7l2.6-3.4h1.5l-3,3.8l3.2,4.1h-1.7L181.7,35.8z"/>
		<path class="st3" d="M193.4,32.5h-2.9v6.7H189v-6.7h-2.9v-1.3h7.3V32.5z"/>
		<path class="st3" d="M195.8,38.7c-0.6-0.4-1.1-0.8-1.5-1.4c-0.4-0.6-0.5-1.3-0.5-2.1c0-0.8,0.2-1.5,0.5-2.1
			c0.4-0.6,0.8-1.1,1.5-1.4c0.6-0.3,1.3-0.5,2.1-0.5s1.5,0.2,2.1,0.5c0.6,0.3,1.1,0.8,1.5,1.4c0.4,0.6,0.5,1.3,0.5,2.1
			c0,0.8-0.2,1.5-0.5,2.1c-0.4,0.6-0.8,1.1-1.5,1.4c-0.6,0.3-1.3,0.5-2.1,0.5S196.4,39.1,195.8,38.7z M199.3,37.7
			c0.4-0.2,0.7-0.6,1-1c0.2-0.4,0.3-0.9,0.3-1.5s-0.1-1-0.3-1.5c-0.2-0.4-0.5-0.8-1-1c-0.4-0.2-0.9-0.3-1.4-0.3s-1,0.1-1.4,0.3
			c-0.4,0.2-0.7,0.6-1,1c-0.2,0.4-0.4,0.9-0.4,1.5s0.1,1,0.4,1.5c0.2,0.4,0.6,0.8,1,1c0.4,0.2,0.9,0.4,1.4,0.4
			S198.9,37.9,199.3,37.7z"/>
		<path class="st3" d="M210.4,31.7c0.6,0.3,1.1,0.8,1.4,1.4c0.3,0.6,0.5,1.3,0.5,2.1c0,0.8-0.2,1.5-0.5,2.1
			c-0.3,0.6-0.8,1.1-1.4,1.4c-0.6,0.3-1.3,0.5-2.1,0.5c-0.6,0-1.1-0.1-1.6-0.3c-0.5-0.2-0.9-0.5-1.2-1v4.1h-1.4V31.2h1.4v1.3
			c0.3-0.4,0.7-0.8,1.2-1s1-0.3,1.6-0.3C209.1,31.2,209.8,31.3,210.4,31.7z M209.6,37.7c0.4-0.2,0.7-0.6,1-1
			c0.2-0.4,0.4-0.9,0.4-1.5s-0.1-1-0.4-1.5c-0.2-0.4-0.6-0.8-1-1c-0.4-0.2-0.9-0.3-1.4-0.3c-0.5,0-1,0.1-1.4,0.4
			c-0.4,0.2-0.7,0.6-1,1s-0.4,0.9-0.4,1.5s0.1,1,0.3,1.5c0.2,0.4,0.5,0.8,1,1s0.9,0.4,1.4,0.4C208.7,38,209.2,37.9,209.6,37.7z"/>
	</g>
</g>
</svg>
